HIERARCHY
ROOT Hips
{
  OFFSET 0.000 73.550 0.000
  CHANNELS 6 Xposition Yposition Zposition Zrotation Xrotation Yrotation
  JOINT LeftUpLeg
  {
    OFFSET 5.873 1.308 2.544
    CHANNELS 6 Xposition Yposition Zposition Zrotation Xrotation Yrotation
    JOINT LeftLeg
    {
      OFFSET 0.000 -38.476 0.000
      CHANNELS 6 Xposition Yposition Zposition Zrotation Xrotation Yrotation
      JOINT LeftFoot
      {
        OFFSET 0.000 -36.382 0.000
        CHANNELS 6 Xposition Yposition Zposition Zrotation Xrotation Yrotation
        End Site
        {
          OFFSET 0.000 0.000 11.032
        }
      }
    }
  }
  JOINT RightUpLeg
  {
    OFFSET -5.873 1.308 2.544
    CHANNELS 6 Xposition Yposition Zposition Zrotation Xrotation Yrotation
    JOINT RightLeg
    {
      OFFSET 0.000 -38.476 0.000
      CHANNELS 6 Xposition Yposition Zposition Zrotation Xrotation Yrotation
      JOINT RightFoot
      {
        OFFSET 0.000 -36.382 0.000
        CHANNELS 6 Xposition Yposition Zposition Zrotation Xrotation Yrotation
        End Site
        {
          OFFSET 0.000 0.000 11.032
        }
      }
    }
  }
  JOINT Spine
  {
    OFFSET 0.000 16.301 0.000
    CHANNELS 6 Xposition Yposition Zposition Zrotation Xrotation Yrotation
    JOINT Spine1
    {
      OFFSET 0.000 12.286 0.000
      CHANNELS 6 Xposition Yposition Zposition Zrotation Xrotation Yrotation
      JOINT LeftShoulder
      {
        OFFSET 1.800 -0.600 0.200
        CHANNELS 6 Xposition Yposition Zposition Zrotation Xrotation Yrotation
        JOINT LeftArm
        {
          OFFSET 14.712 0.000 0.000
          CHANNELS 6 Xposition Yposition Zposition Zrotation Xrotation Yrotation
          JOINT LeftForeArm
          {
            OFFSET 24.084 0.000 0.000
            CHANNELS 6 Xposition Yposition Zposition Zrotation Xrotation Yrotation
            JOINT LeftHand
            {
              OFFSET 22.377 0.000 0.000
              CHANNELS 6 Xposition Yposition Zposition Zrotation Xrotation Yrotation
              JOINT LeftHandThumb1
              {
                OFFSET 4.877 -1.044 3.608
                CHANNELS 6 Xposition Yposition Zposition Zrotation Xrotation Yrotation
                JOINT LeftHandThumb2
                {
                  OFFSET 2.665 0.000 0.000
                  CHANNELS 6 Xposition Yposition Zposition Zrotation Xrotation Yrotation
                  JOINT LeftHandThumb3
                  {
                    OFFSET 2.543 0.000 -0.000
                    CHANNELS 6 Xposition Yposition Zposition Zrotation Xrotation Yrotation
                    End Site
                    {
                      OFFSET 2.667 0.000 0.000
                    }
                  }
                }
              }
              JOINT LeftHandIndex1
              {
                OFFSET 9.232 -0.301 2.144
                CHANNELS 6 Xposition Yposition Zposition Zrotation Xrotation Yrotation
                JOINT LeftHandIndex2
                {
                  OFFSET 4.225 0.000 -0.000
                  CHANNELS 6 Xposition Yposition Zposition Zrotation Xrotation Yrotation
                  JOINT LeftHandIndex3
                  {
                    OFFSET 2.654 -0.000 0.000
                    CHANNELS 6 Xposition Yposition Zposition Zrotation Xrotation Yrotation
                    End Site
                    {
                      OFFSET 1.958 0.000 0.000
                    }
                  }
                }
              }
              JOINT LeftHandMiddle1
              {
                OFFSET 8.920 -0.000 0.000
                CHANNELS 6 Xposition Yposition Zposition Zrotation Xrotation Yrotation
                JOINT LeftHandMiddle2
                {
                  OFFSET 4.863 0.000 -0.000
                  CHANNELS 6 Xposition Yposition Zposition Zrotation Xrotation Yrotation
                  JOINT LeftHandMiddle3
                  {
                    OFFSET 2.765 0.000 0.000
                    CHANNELS 6 Xposition Yposition Zposition Zrotation Xrotation Yrotation
                    End Site
                    {
                      OFFSET 2.006 0.000 0.000
                    }
                  }
                }
              }
              JOINT LeftHandRing1
              {
                OFFSET 8.689 -0.126 -2.087
                CHANNELS 6 Xposition Yposition Zposition Zrotation Xrotation Yrotation
                JOINT LeftHandRing2
                {
                  OFFSET 4.538 0.000 0.000
                  CHANNELS 6 Xposition Yposition Zposition Zrotation Xrotation Yrotation
                  JOINT LeftHandRing3
                  {
                    OFFSET 2.305 0.000 0.000
                    CHANNELS 6 Xposition Yposition Zposition Zrotation Xrotation Yrotation
                    End Site
                    {
                      OFFSET 1.923 0.000 0.000
                    }
                  }
                }
              }
              JOINT LeftHandPinky1
              {
                OFFSET 8.391 -0.817 -3.758
                CHANNELS 6 Xposition Yposition Zposition Zrotation Xrotation Yrotation
                JOINT LeftHandPinky2
                {
                  OFFSET 3.044 0.000 0.000
                  CHANNELS 6 Xposition Yposition Zposition Zrotation Xrotation Yrotation
                  JOINT LeftHandPinky3
                  {
                    OFFSET 1.975 0.000 0.000
                    CHANNELS 6 Xposition Yposition Zposition Zrotation Xrotation Yrotation
                    End Site
                    {
                      OFFSET 1.667 0.000 0.000
                    }
                  }
                }
              }
            }
          }
        }
      }
      JOINT RightShoulder
      {
        OFFSET -1.800 -0.600 0.200
        CHANNELS 6 Xposition Yposition Zposition Zrotation Xrotation Yrotation
        JOINT RightArm
        {
          OFFSET -14.712 0.000 0.000
          CHANNELS 6 Xposition Yposition Zposition Zrotation Xrotation Yrotation
          JOINT RightForeArm
          {
            OFFSET -24.084 0.000 0.000
            CHANNELS 6 Xposition Yposition Zposition Zrotation Xrotation Yrotation
            JOINT RightHand
            {
              OFFSET -22.377 0.000 0.000
              CHANNELS 6 Xposition Yposition Zposition Zrotation Xrotation Yrotation
              JOINT RightHandThumb1
              {
                OFFSET -4.877 -1.044 3.608
                CHANNELS 6 Xposition Yposition Zposition Zrotation Xrotation Yrotation
                JOINT RightHandThumb2
                {
                  OFFSET -2.665 -0.000 0.000
                  CHANNELS 6 Xposition Yposition Zposition Zrotation Xrotation Yrotation
                  JOINT RightHandThumb3
                  {
                    OFFSET -2.543 0.000 -0.000
                    CHANNELS 6 Xposition Yposition Zposition Zrotation Xrotation Yrotation
                    End Site
                    {
                      OFFSET -2.667 -0.000 0.000
                    }
                  }
                }
              }
              JOINT RightHandIndex1
              {
                OFFSET -9.232 -0.301 2.144
                CHANNELS 6 Xposition Yposition Zposition Zrotation Xrotation Yrotation
                JOINT RightHandIndex2
                {
                  OFFSET -4.225 0.000 0.000
                  CHANNELS 6 Xposition Yposition Zposition Zrotation Xrotation Yrotation
                  JOINT RightHandIndex3
                  {
                    OFFSET -2.654 0.000 0.000
                    CHANNELS 6 Xposition Yposition Zposition Zrotation Xrotation Yrotation
                    End Site
                    {
                      OFFSET -1.958 -0.000 -0.000
                    }
                  }
                }
              }
              JOINT RightHandMiddle1
              {
                OFFSET -8.920 0.000 0.000
                CHANNELS 6 Xposition Yposition Zposition Zrotation Xrotation Yrotation
                JOINT RightHandMiddle2
                {
                  OFFSET -4.863 0.000 0.000
                  CHANNELS 6 Xposition Yposition Zposition Zrotation Xrotation Yrotation
                  JOINT RightHandMiddle3
                  {
                    OFFSET -2.765 0.000 0.000
                    CHANNELS 6 Xposition Yposition Zposition Zrotation Xrotation Yrotation
                    End Site
                    {
                      OFFSET -2.006 -0.000 0.000
                    }
                  }
                }
              }
              JOINT RightHandRing1
              {
                OFFSET -8.689 -0.126 -2.087
                CHANNELS 6 Xposition Yposition Zposition Zrotation Xrotation Yrotation
                JOINT RightHandRing2
                {
                  OFFSET -4.538 0.000 -0.000
                  CHANNELS 6 Xposition Yposition Zposition Zrotation Xrotation Yrotation
                  JOINT RightHandRing3
                  {
                    OFFSET -2.305 0.000 0.000
                    CHANNELS 6 Xposition Yposition Zposition Zrotation Xrotation Yrotation
                    End Site
                    {
                      OFFSET -1.923 0.000 0.000
                    }
                  }
                }
              }
              JOINT RightHandPinky1
              {
                OFFSET -8.391 -0.817 -3.758
                CHANNELS 6 Xposition Yposition Zposition Zrotation Xrotation Yrotation
                JOINT RightHandPinky2
                {
                  OFFSET -3.044 0.000 0.000
                  CHANNELS 6 Xposition Yposition Zposition Zrotation Xrotation Yrotation
                  JOINT RightHandPinky3
                  {
                    OFFSET -1.975 -0.000 0.000
                    CHANNELS 6 Xposition Yposition Zposition Zrotation Xrotation Yrotation
                    End Site
                    {
                      OFFSET -1.667 0.000 -0.000
                    }
                  }
                }
              }
            }
          }
        }
      }
      JOINT Neck
      {
        OFFSET 0.000 0.800 0.000
        CHANNELS 6 Xposition Yposition Zposition Zrotation Xrotation Yrotation
        JOINT Head
        {
          OFFSET 0.000 6.605 0.000
          CHANNELS 6 Xposition Yposition Zposition Zrotation Xrotation Yrotation
          End Site
          {
            OFFSET 0.000 13.582 0.000
          }
        }
      }
    }
  }
}
MOTION
Frames:	4
Frame Time:	0.033333
-33.38541 -13.80790 -221.34456 -11.75994 -9.29960 22.00229 5.26517 2.76028 2.79910 -119.40049 -33.71558 -113.51260 0.70656 -40.38389 -0.25959 -156.58870 18.41109 98.97267 -0.00591 -32.85984 0.02251 -1.01589 -34.90736 -1.57033 -7.99294 -0.32830 3.39377 -112.20314 17.25944 -38.62854 0.40215 -32.62930 0.48827 85.53604 61.49219 -51.26662 0.06161 -36.18502 0.10363 1.11432 20.36360 -3.20248 -0.35430 23.61627 -0.35784 -0.46099 1.63435 -2.40411 -0.07775 17.25306 -0.17053 0.15054 2.77975 -1.28141 0.84027 1.14685 0.20732 50.78894 -12.50403 -10.09933 13.35791 0.33609 -0.39451 -77.37822 2.23532 -16.68262 29.22112 -0.39362 -0.40580 36.44037 -0.25049 -54.13515 21.86594 2.55239 0.66134 -32.73934 16.83565 56.78860 4.87700 -1.04401 3.60801 -41.57218 -8.45191 -7.73361 2.66499 0.00000 0.00000 0.00000 -0.00000 5.00543 2.54299 0.00001 -0.00001 -0.00001 0.00000 59.99575 9.23200 -0.30102 2.14400 -79.99652 -0.00000 -0.00000 4.22499 0.00000 -0.00001 -89.99623 -0.00000 0.00000 2.65399 -0.00001 0.00000 -69.99623 0.00510 -0.00494 8.92000 -0.00001 0.00001 -79.99652 -0.00000 -0.00000 4.86300 0.00001 -0.00001 -89.99623 -0.00000 0.00000 2.76500 0.00001 0.00000 -69.99623 0.00510 -0.00494 8.68901 -0.12602 -2.08700 -79.99652 -0.00000 -0.00000 4.53799 0.00000 0.00000 -89.99623 -0.00000 0.00000 2.30501 0.00001 0.00000 -69.99623 0.00510 -0.00494 8.39101 -0.81702 -3.75800 -79.99652 -0.00000 -0.00000 3.04399 0.00001 0.00001 -89.99623 -0.00000 0.00000 1.97500 0.00001 0.00000 -69.99623 0.00510 -0.00494 -2.72012 -0.98327 0.31453 20.20308 2.46611 4.59085 -26.14068 -0.09039 0.74314 -23.47598 -26.45718 -49.08703 -23.87573 -1.81291 -1.41571 -128.81218 -52.24698 41.64864 -29.99824 0.60209 -0.27734 28.57076 42.11249 -36.30572 -4.87700 -1.04399 3.60800 24.66570 4.20855 9.07947 -2.66502 -0.00001 0.00000 -0.00000 -0.00000 -10.00000 -2.54298 0.00004 -0.00002 -0.00000 0.00000 -15.00000 -9.23200 -0.30099 2.14400 20.00000 -0.00001 0.00000 -4.22499 0.00000 0.00000 25.00000 -0.00001 0.00000 -2.65400 0.00000 0.00000 29.90550 2.49762 4.33288 -8.92000 0.00000 0.00001 20.00000 -0.00001 0.00000 -4.86300 0.00001 0.00000 25.00000 -0.00001 0.00000 -2.76499 0.00000 0.00000 29.90550 2.49762 4.33288 -8.68900 -0.12599 -2.08699 20.00000 -0.00001 0.00000 -4.53800 0.00000 -0.00001 25.00000 -0.00001 0.00000 -2.30501 0.00000 0.00001 29.90550 2.49762 4.33288 -8.39100 -0.81700 -3.75800 20.00000 -0.00001 0.00000 -3.04400 0.00001 0.00000 25.00000 -0.00001 0.00000 -1.97501 -0.00001 0.00001 29.90550 2.49762 4.33288 -0.00221 0.57930 -0.00575 0.00005 -0.00002 0.00710 -0.05501 5.25993 -0.02363 -61.27782 35.45551 30.99478 
-33.85789 -14.37708 -220.82413 -12.99621 -10.55959 25.30186 4.96948 2.74767 2.88580 -118.18098 -31.04822 -101.27839 0.77771 -40.33520 -0.20548 -160.94101 21.02196 108.48035 -0.03535 -33.05412 0.04782 0.07288 -35.07652 0.25023 -8.30306 -0.46065 3.34825 -113.92891 22.14277 -36.30292 0.34994 -32.18349 0.32415 88.64881 62.12892 -50.76523 0.05436 -36.19473 0.09948 1.30740 20.36049 -3.75593 -0.26356 23.51943 -0.32552 -1.41793 1.76388 -3.56939 -0.01527 17.32676 -0.17388 -0.65411 2.45802 -3.11451 0.74000 1.24159 0.19823 55.67137 -14.00576 -9.24076 13.43968 0.25238 -0.29720 -79.89243 -0.14512 -14.39652 29.10121 -0.30093 -0.38740 42.07441 -2.71421 -54.51763 24.14347 2.89524 0.15064 -43.81361 20.80116 59.90872 4.87700 -1.04401 3.60801 -41.57218 -8.45191 -7.73361 2.66499 0.00000 0.00000 0.00000 -0.00000 5.00543 2.54299 0.00001 -0.00001 -0.00001 0.00000 59.99575 9.23200 -0.30102 2.14400 -79.99652 -0.00000 -0.00000 4.22499 0.00000 -0.00001 -89.99623 -0.00000 0.00000 2.65399 -0.00001 0.00000 -69.99623 0.00510 -0.00494 8.92000 -0.00001 0.00001 -79.99652 -0.00000 -0.00000 4.86300 0.00001 -0.00001 -89.99623 -0.00000 0.00000 2.76500 0.00001 0.00000 -69.99623 0.00510 -0.00494 8.68901 -0.12602 -2.08700 -79.99652 -0.00000 -0.00000 4.53799 0.00000 0.00000 -89.99623 -0.00000 0.00000 2.30501 0.00001 0.00000 -69.99623 0.00510 -0.00494 8.39101 -0.81702 -3.75800 -79.99652 -0.00000 -0.00000 3.04399 0.00001 0.00001 -89.99623 -0.00000 0.00000 1.97500 0.00001 0.00000 -69.99623 0.00510 -0.00494 -2.69485 -1.14377 0.28663 23.88340 2.49457 4.32069 -26.19122 -0.08351 0.53543 -24.82244 -24.43786 -48.60526 -23.20756 -1.35379 -1.06737 -123.75811 -55.16046 45.72352 -30.39920 0.53179 -0.22626 30.06858 44.96585 -39.81477 -4.87700 -1.04399 3.60800 24.66570 4.20855 9.07947 -2.66502 -0.00001 0.00000 -0.00000 -0.00000 -10.00000 -2.54298 0.00004 -0.00002 -0.00000 0.00000 -15.00000 -9.23200 -0.30099 2.14400 20.00000 -0.00001 0.00000 -4.22499 0.00000 0.00000 25.00000 -0.00001 0.00000 -2.65400 0.00000 0.00000 29.90550 2.49762 4.33288 -8.92000 0.00000 0.00001 20.00000 -0.00001 0.00000 -4.86300 0.00001 0.00000 25.00000 -0.00001 0.00000 -2.76499 0.00000 0.00000 29.90550 2.49762 4.33288 -8.68900 -0.12599 -2.08699 20.00000 -0.00001 0.00000 -4.53800 0.00000 -0.00001 25.00000 -0.00001 0.00000 -2.30501 0.00000 0.00001 29.90550 2.49762 4.33288 -8.39100 -0.81700 -3.75800 20.00000 -0.00001 0.00000 -3.04400 0.00001 0.00000 25.00000 -0.00001 0.00000 -1.97501 -0.00001 0.00001 29.90550 2.49762 4.33288 -0.00221 0.58382 -0.00575 0.00005 -0.00002 0.00710 -0.05332 5.30388 -0.01389 -57.95419 36.34854 32.29033 
-34.78752 -14.48265 -220.17068 -16.16263 -12.58236 25.83018 4.90398 2.85692 2.92523 -115.73681 -30.58919 -92.75875 0.76195 -39.87445 -0.18657 -159.88426 18.78799 109.37923 1.01926 -26.71438 -0.92941 1.45180 -32.31744 3.79540 -8.25999 -0.81942 3.26072 -113.49261 25.16522 -34.76524 0.43695 -30.92129 0.22282 91.57462 62.73052 -49.77704 0.04884 -36.20197 0.10702 1.49785 20.36106 -4.30068 -0.16037 23.53535 -0.28114 -2.91774 1.78026 -3.94226 0.17664 17.67071 -0.17508 0.49859 2.51212 -3.61981 0.59430 1.33196 0.19536 61.35383 -19.98569 -9.23390 13.49401 0.22875 -0.24999 -82.71885 -0.82355 -7.66027 29.02542 -0.18858 -0.34244 46.01551 -5.89863 -56.41963 26.03980 2.60004 0.12832 -62.21011 20.61500 67.37852 4.87700 -1.04401 3.60801 -41.57218 -8.45191 -7.73361 2.66499 0.00000 0.00000 0.00000 -0.00000 5.00543 2.54299 0.00001 -0.00001 -0.00001 0.00000 59.99575 9.23200 -0.30102 2.14400 -79.99652 -0.00000 -0.00000 4.22499 0.00000 -0.00001 -89.99623 -0.00000 0.00000 2.65399 -0.00001 0.00000 -69.99623 0.00510 -0.00494 8.92000 -0.00001 0.00001 -79.99652 -0.00000 -0.00000 4.86300 0.00001 -0.00001 -89.99623 -0.00000 0.00000 2.76500 0.00001 0.00000 -69.99623 0.00510 -0.00494 8.68901 -0.12602 -2.08700 -79.99652 -0.00000 -0.00000 4.53799 0.00000 0.00000 -89.99623 -0.00000 0.00000 2.30501 0.00001 0.00000 -69.99623 0.00510 -0.00494 8.39101 -0.81702 -3.75800 -79.99652 -0.00000 -0.00000 3.04399 0.00001 0.00001 -89.99623 -0.00000 0.00000 1.97500 0.00001 0.00000 -69.99623 0.00510 -0.00494 -2.64561 -1.34806 0.27462 28.14874 2.69979 4.22300 -26.08437 -0.08129 0.38029 -21.22840 -21.92989 -44.89370 -22.82710 -1.05707 -0.75833 -126.93605 -51.75876 43.08255 -30.67651 0.38413 -0.16257 36.06107 39.32819 -41.59112 -4.87700 -1.04399 3.60800 24.66570 4.20855 9.07947 -2.66502 -0.00001 0.00000 -0.00000 -0.00000 -10.00000 -2.54298 0.00004 -0.00002 -0.00000 0.00000 -15.00000 -9.23200 -0.30099 2.14400 20.00000 -0.00001 0.00000 -4.22499 0.00000 0.00000 25.00000 -0.00001 0.00000 -2.65400 0.00000 0.00000 29.90550 2.49762 4.33288 -8.92000 0.00000 0.00001 20.00000 -0.00001 0.00000 -4.86300 0.00001 0.00000 25.00000 -0.00001 0.00000 -2.76499 0.00000 0.00000 29.90550 2.49762 4.33288 -8.68900 -0.12599 -2.08699 20.00000 -0.00001 0.00000 -4.53800 0.00000 -0.00001 25.00000 -0.00001 0.00000 -2.30501 0.00000 0.00001 29.90550 2.49762 4.33288 -8.39100 -0.81700 -3.75800 20.00000 -0.00001 0.00000 -3.04400 0.00001 0.00000 25.00000 -0.00001 0.00000 -1.97501 -0.00001 0.00001 29.90550 2.49762 4.33288 -0.00221 0.58758 -0.00575 0.00005 -0.00002 0.00710 -0.05262 5.31979 -0.00548 -55.13114 36.65229 32.74074 
-35.63851 -14.52834 -219.57669 -18.97647 -14.42206 24.94501 4.79150 2.93859 2.98793 -113.92625 -31.35701 -86.82071 0.70201 -39.28405 -0.15631 -159.45554 17.21793 110.55582 1.16406 -22.24376 -1.11981 2.81684 -30.80247 6.85366 -8.09753 -1.12902 3.23689 -111.33531 26.93988 -34.72279 0.37241 -30.48343 0.16842 90.96918 63.53447 -46.59074 0.05600 -36.18005 0.09139 1.63149 20.35089 -4.68482 -0.07569 23.69260 -0.20266 -3.39726 1.80858 -3.85179 0.24017 18.01567 -0.13874 1.26932 2.63844 -3.37705 0.48592 1.37407 0.19644 65.17440 -25.53004 -9.52628 13.42592 0.19370 -0.20309 -84.50687 -1.92713 -1.44637 28.96059 -0.12518 -0.27795 46.15599 -8.95820 -58.06259 26.09695 1.88956 0.08006 -48.80196 20.90404 62.81581 4.87700 -1.04401 3.60801 -41.57218 -8.45191 -7.73361 2.66499 0.00000 0.00000 0.00000 -0.00000 5.00543 2.54299 0.00001 -0.00001 -0.00001 0.00000 59.99575 9.23200 -0.30102 2.14400 -79.99652 -0.00000 -0.00000 4.22499 0.00000 -0.00001 -89.99623 -0.00000 0.00000 2.65399 -0.00001 0.00000 -69.99623 0.00510 -0.00494 8.92000 -0.00001 0.00001 -79.99652 -0.00000 -0.00000 4.86300 0.00001 -0.00001 -89.99623 -0.00000 0.00000 2.76500 0.00001 0.00000 -69.99623 0.00510 -0.00494 8.68901 -0.12602 -2.08700 -79.99652 -0.00000 -0.00000 4.53799 0.00000 0.00000 -89.99623 -0.00000 0.00000 2.30501 0.00001 0.00000 -69.99623 0.00510 -0.00494 8.39101 -0.81702 -3.75800 -79.99652 -0.00000 -0.00000 3.04399 0.00001 0.00001 -89.99623 -0.00000 0.00000 1.97500 0.00001 0.00000 -69.99623 0.00510 -0.00494 -2.57868 -1.49403 0.26419 31.23272 2.87869 4.19075 -25.99934 -0.07970 0.27108 -17.89481 -19.71994 -42.47827 -22.58299 -0.80191 -0.53665 -126.55641 -51.50097 43.15337 -30.87455 0.28680 -0.09878 35.36245 45.73555 -49.81660 -4.87700 -1.04399 3.60800 24.66570 4.20855 9.07947 -2.66502 -0.00001 0.00000 -0.00000 -0.00000 -10.00000 -2.54298 0.00004 -0.00002 -0.00000 0.00000 -15.00000 -9.23200 -0.30099 2.14400 20.00000 -0.00001 0.00000 -4.22499 0.00000 0.00000 25.00000 -0.00001 0.00000 -2.65400 0.00000 0.00000 29.90550 2.49762 4.33288 -8.92000 0.00000 0.00001 20.00000 -0.00001 0.00000 -4.86300 0.00001 0.00000 25.00000 -0.00001 0.00000 -2.76499 0.00000 0.00000 29.90550 2.49762 4.33288 -8.68900 -0.12599 -2.08699 20.00000 -0.00001 0.00000 -4.53800 0.00000 -0.00001 25.00000 -0.00001 0.00000 -2.30501 0.00000 0.00001 29.90550 2.49762 4.33288 -8.39100 -0.81700 -3.75800 20.00000 -0.00001 0.00000 -3.04400 0.00001 0.00000 25.00000 -0.00001 0.00000 -1.97501 -0.00001 0.00001 29.90550 2.49762 4.33288 -0.00221 0.59209 -0.00575 0.00005 -0.00002 0.00710 -0.05238 5.34521 -0.00161 -53.06021 37.24454 36.50169 
